<mxfile host="app.diagrams.net" agent="Mozilla/5.0 (Windows NT 10.0; Win64; x64) AppleWebKit/537.36 (KHTML, like Gecko) Chrome/130.0.0.0 Safari/537.36" version="24.8.2">
  <diagram name="StrÃ¡nka-1" id="rX_xoH0MwS_dcc7v4onx">
    <mxGraphModel dx="454" dy="259" grid="1" gridSize="10" guides="1" tooltips="1" connect="1" arrows="1" fold="1" page="1" pageScale="1" pageWidth="827" pageHeight="1169" math="0" shadow="0">
      <root>
        <mxCell id="0" />
        <mxCell id="1" parent="0" />
        <mxCell id="SwrGtEoqF36c3NfEzrav-1" value="" style="ellipse;whiteSpace=wrap;html=1;aspect=fixed;" parent="1" vertex="1">
          <mxGeometry x="200" y="160" width="30" height="30" as="geometry" />
        </mxCell>
        <mxCell id="SwrGtEoqF36c3NfEzrav-2" value="" style="ellipse;whiteSpace=wrap;html=1;aspect=fixed;" parent="1" vertex="1">
          <mxGeometry x="250" y="160" width="30" height="30" as="geometry" />
        </mxCell>
        <mxCell id="SwrGtEoqF36c3NfEzrav-5" value="" style="ellipse;whiteSpace=wrap;html=1;aspect=fixed;" parent="1" vertex="1">
          <mxGeometry x="350" y="160" width="30" height="30" as="geometry" />
        </mxCell>
        <mxCell id="SwrGtEoqF36c3NfEzrav-6" value="" style="ellipse;whiteSpace=wrap;html=1;aspect=fixed;" parent="1" vertex="1">
          <mxGeometry x="290" y="171.5" width="7" height="7" as="geometry" />
        </mxCell>
        <mxCell id="SwrGtEoqF36c3NfEzrav-7" value="" style="ellipse;whiteSpace=wrap;html=1;aspect=fixed;" parent="1" vertex="1">
          <mxGeometry x="310" y="171.5" width="7" height="7" as="geometry" />
        </mxCell>
        <mxCell id="SwrGtEoqF36c3NfEzrav-8" value="" style="ellipse;whiteSpace=wrap;html=1;aspect=fixed;" parent="1" vertex="1">
          <mxGeometry x="330" y="171.5" width="7" height="7" as="geometry" />
        </mxCell>
        <mxCell id="SwrGtEoqF36c3NfEzrav-9" value="x1" style="text;html=1;align=center;verticalAlign=middle;whiteSpace=wrap;rounded=0;fontFamily=Times New Roman;fontSize=12;fontStyle=1;" parent="1" vertex="1">
          <mxGeometry x="200" y="240" width="30" height="20" as="geometry" />
        </mxCell>
        <mxCell id="SwrGtEoqF36c3NfEzrav-10" value="&lt;font style=&quot;font-size: 12px;&quot;&gt;x2&lt;/font&gt;" style="text;html=1;align=center;verticalAlign=middle;whiteSpace=wrap;rounded=0;fontFamily=Times New Roman;fontSize=14;fontStyle=1;" parent="1" vertex="1">
          <mxGeometry x="250" y="240" width="30" height="20" as="geometry" />
        </mxCell>
        <mxCell id="SwrGtEoqF36c3NfEzrav-11" value="&lt;font style=&quot;font-size: 12px;&quot;&gt;xn&lt;/font&gt;" style="text;html=1;align=center;verticalAlign=middle;whiteSpace=wrap;rounded=0;fontFamily=Times New Roman;fontSize=14;fontStyle=1;" parent="1" vertex="1">
          <mxGeometry x="350" y="240" width="30" height="20" as="geometry" />
        </mxCell>
        <mxCell id="SwrGtEoqF36c3NfEzrav-12" value="" style="endArrow=openThin;html=1;rounded=0;exitX=0.5;exitY=0;exitDx=0;exitDy=0;entryX=0.5;entryY=1;entryDx=0;entryDy=0;endFill=0;" parent="1" source="SwrGtEoqF36c3NfEzrav-9" target="SwrGtEoqF36c3NfEzrav-1" edge="1">
          <mxGeometry width="50" height="50" relative="1" as="geometry">
            <mxPoint x="310" y="230" as="sourcePoint" />
            <mxPoint x="360" y="180" as="targetPoint" />
          </mxGeometry>
        </mxCell>
        <mxCell id="SwrGtEoqF36c3NfEzrav-14" value="" style="endArrow=openThin;html=1;rounded=0;exitX=0.5;exitY=0;exitDx=0;exitDy=0;entryX=0.5;entryY=1;entryDx=0;entryDy=0;endFill=0;" parent="1" source="SwrGtEoqF36c3NfEzrav-10" target="SwrGtEoqF36c3NfEzrav-2" edge="1">
          <mxGeometry width="50" height="50" relative="1" as="geometry">
            <mxPoint x="225" y="250" as="sourcePoint" />
            <mxPoint x="225" y="200" as="targetPoint" />
          </mxGeometry>
        </mxCell>
        <mxCell id="SwrGtEoqF36c3NfEzrav-15" value="" style="endArrow=openThin;html=1;rounded=0;exitX=0.5;exitY=0;exitDx=0;exitDy=0;entryX=0.5;entryY=1;entryDx=0;entryDy=0;endFill=0;" parent="1" source="SwrGtEoqF36c3NfEzrav-11" target="SwrGtEoqF36c3NfEzrav-5" edge="1">
          <mxGeometry width="50" height="50" relative="1" as="geometry">
            <mxPoint x="275" y="250" as="sourcePoint" />
            <mxPoint x="275" y="200" as="targetPoint" />
          </mxGeometry>
        </mxCell>
        <mxCell id="SwrGtEoqF36c3NfEzrav-16" value="y1" style="text;html=1;align=center;verticalAlign=middle;whiteSpace=wrap;rounded=0;fontFamily=Times New Roman;fontSize=12;fontStyle=1;" parent="1" vertex="1">
          <mxGeometry x="200" y="80" width="30" height="20" as="geometry" />
        </mxCell>
        <mxCell id="SwrGtEoqF36c3NfEzrav-17" value="y2" style="text;html=1;align=center;verticalAlign=middle;whiteSpace=wrap;rounded=0;fontFamily=Times New Roman;fontSize=12;fontStyle=1;" parent="1" vertex="1">
          <mxGeometry x="250" y="80" width="30" height="20" as="geometry" />
        </mxCell>
        <mxCell id="SwrGtEoqF36c3NfEzrav-18" value="yn" style="text;html=1;align=center;verticalAlign=middle;whiteSpace=wrap;rounded=0;fontFamily=Times New Roman;fontSize=12;fontStyle=1;" parent="1" vertex="1">
          <mxGeometry x="350" y="80" width="30" height="20" as="geometry" />
        </mxCell>
        <mxCell id="SwrGtEoqF36c3NfEzrav-19" value="" style="endArrow=openThin;html=1;rounded=0;exitX=0.5;exitY=0;exitDx=0;exitDy=0;entryX=0.5;entryY=1;entryDx=0;entryDy=0;endFill=0;" parent="1" source="SwrGtEoqF36c3NfEzrav-1" target="SwrGtEoqF36c3NfEzrav-16" edge="1">
          <mxGeometry width="50" height="50" relative="1" as="geometry">
            <mxPoint x="225" y="250" as="sourcePoint" />
            <mxPoint x="225" y="200" as="targetPoint" />
          </mxGeometry>
        </mxCell>
        <mxCell id="SwrGtEoqF36c3NfEzrav-20" value="" style="endArrow=openThin;html=1;rounded=0;exitX=0.5;exitY=0;exitDx=0;exitDy=0;entryX=0.5;entryY=1;entryDx=0;entryDy=0;endFill=0;" parent="1" source="SwrGtEoqF36c3NfEzrav-2" target="SwrGtEoqF36c3NfEzrav-17" edge="1">
          <mxGeometry width="50" height="50" relative="1" as="geometry">
            <mxPoint x="225" y="170" as="sourcePoint" />
            <mxPoint x="225" y="110" as="targetPoint" />
          </mxGeometry>
        </mxCell>
        <mxCell id="SwrGtEoqF36c3NfEzrav-21" value="" style="endArrow=openThin;html=1;rounded=0;exitX=0.5;exitY=0;exitDx=0;exitDy=0;entryX=0.5;entryY=1;entryDx=0;entryDy=0;endFill=0;" parent="1" source="SwrGtEoqF36c3NfEzrav-5" target="SwrGtEoqF36c3NfEzrav-18" edge="1">
          <mxGeometry width="50" height="50" relative="1" as="geometry">
            <mxPoint x="275" y="170" as="sourcePoint" />
            <mxPoint x="275" y="110" as="targetPoint" />
          </mxGeometry>
        </mxCell>
        <mxCell id="SwrGtEoqF36c3NfEzrav-23" value="" style="endArrow=openThin;html=1;rounded=0;entryX=0.5;entryY=1;entryDx=0;entryDy=0;endFill=0;startArrow=oval;startFill=1;" parent="1" target="SwrGtEoqF36c3NfEzrav-2" edge="1">
          <mxGeometry width="50" height="50" relative="1" as="geometry">
            <mxPoint x="215" y="150" as="sourcePoint" />
            <mxPoint x="225" y="110" as="targetPoint" />
            <Array as="points">
              <mxPoint x="190" y="150" />
              <mxPoint x="190" y="210" />
              <mxPoint x="240" y="210" />
            </Array>
          </mxGeometry>
        </mxCell>
        <mxCell id="SwrGtEoqF36c3NfEzrav-24" value="" style="endArrow=openThin;html=1;rounded=0;entryX=0.5;entryY=1;entryDx=0;entryDy=0;endFill=0;startArrow=oval;startFill=1;" parent="1" target="SwrGtEoqF36c3NfEzrav-5" edge="1">
          <mxGeometry width="50" height="50" relative="1" as="geometry">
            <mxPoint x="240" y="210" as="sourcePoint" />
            <mxPoint x="275" y="200" as="targetPoint" />
            <Array as="points">
              <mxPoint x="240" y="210" />
              <mxPoint x="340" y="210" />
            </Array>
          </mxGeometry>
        </mxCell>
        <mxCell id="AZNB21Kx3GAau0c4Y6r7-3" value="&lt;font style=&quot;font-size: 10px;&quot;&gt;w1n&lt;/font&gt;" style="edgeLabel;html=1;align=center;verticalAlign=middle;resizable=0;points=[];" vertex="1" connectable="0" parent="SwrGtEoqF36c3NfEzrav-24">
          <mxGeometry x="0.3231" relative="1" as="geometry">
            <mxPoint x="-17" as="offset" />
          </mxGeometry>
        </mxCell>
        <mxCell id="SwrGtEoqF36c3NfEzrav-27" value="" style="endArrow=openThin;html=1;rounded=0;entryX=0.5;entryY=1;entryDx=0;entryDy=0;endFill=0;startArrow=oval;startFill=1;" parent="1" target="SwrGtEoqF36c3NfEzrav-1" edge="1">
          <mxGeometry width="50" height="50" relative="1" as="geometry">
            <mxPoint x="265" y="140" as="sourcePoint" />
            <mxPoint x="225" y="200" as="targetPoint" />
            <Array as="points">
              <mxPoint x="170" y="140" />
              <mxPoint x="170" y="220" />
              <mxPoint x="180" y="220" />
            </Array>
          </mxGeometry>
        </mxCell>
        <mxCell id="SwrGtEoqF36c3NfEzrav-28" value="" style="endArrow=openThin;html=1;rounded=0;entryX=0.5;entryY=1;entryDx=0;entryDy=0;endFill=0;startArrow=oval;startFill=1;" parent="1" target="SwrGtEoqF36c3NfEzrav-5" edge="1">
          <mxGeometry width="50" height="50" relative="1" as="geometry">
            <mxPoint x="180" y="220" as="sourcePoint" />
            <mxPoint x="225" y="200" as="targetPoint" />
            <Array as="points">
              <mxPoint x="350" y="220" />
            </Array>
          </mxGeometry>
        </mxCell>
        <mxCell id="AZNB21Kx3GAau0c4Y6r7-4" value="&lt;font style=&quot;font-size: 10px;&quot;&gt;w2n&lt;/font&gt;" style="edgeLabel;html=1;align=center;verticalAlign=middle;resizable=0;points=[];" vertex="1" connectable="0" parent="SwrGtEoqF36c3NfEzrav-28">
          <mxGeometry x="0.5039" y="1" relative="1" as="geometry">
            <mxPoint as="offset" />
          </mxGeometry>
        </mxCell>
        <mxCell id="SwrGtEoqF36c3NfEzrav-29" value="" style="endArrow=openThin;html=1;rounded=0;entryX=0.5;entryY=1;entryDx=0;entryDy=0;endFill=0;startArrow=oval;startFill=1;" parent="1" target="SwrGtEoqF36c3NfEzrav-1" edge="1">
          <mxGeometry width="50" height="50" relative="1" as="geometry">
            <mxPoint x="365" y="130" as="sourcePoint" />
            <mxPoint x="225" y="200" as="targetPoint" />
            <Array as="points">
              <mxPoint x="160" y="130" />
              <mxPoint x="160" y="230" />
              <mxPoint x="190" y="230" />
            </Array>
          </mxGeometry>
        </mxCell>
        <mxCell id="SwrGtEoqF36c3NfEzrav-30" value="" style="endArrow=openThin;html=1;rounded=0;entryX=0.5;entryY=1;entryDx=0;entryDy=0;endFill=0;startArrow=oval;startFill=1;" parent="1" target="SwrGtEoqF36c3NfEzrav-2" edge="1">
          <mxGeometry width="50" height="50" relative="1" as="geometry">
            <mxPoint x="190" y="230" as="sourcePoint" />
            <mxPoint x="225" y="200" as="targetPoint" />
            <Array as="points">
              <mxPoint x="250" y="230" />
            </Array>
          </mxGeometry>
        </mxCell>
        <mxCell id="AZNB21Kx3GAau0c4Y6r7-5" value="" style="endArrow=none;html=1;rounded=0;" edge="1" parent="1">
          <mxGeometry width="50" height="50" relative="1" as="geometry">
            <mxPoint x="180" y="440" as="sourcePoint" />
            <mxPoint x="180" y="320" as="targetPoint" />
            <Array as="points">
              <mxPoint x="160" y="440" />
              <mxPoint x="160" y="320" />
            </Array>
          </mxGeometry>
        </mxCell>
        <mxCell id="AZNB21Kx3GAau0c4Y6r7-6" value="" style="endArrow=none;html=1;rounded=0;" edge="1" parent="1">
          <mxGeometry width="50" height="50" relative="1" as="geometry">
            <mxPoint x="260" y="320" as="sourcePoint" />
            <mxPoint x="260" y="440" as="targetPoint" />
            <Array as="points">
              <mxPoint x="280" y="320" />
              <mxPoint x="280" y="440" />
            </Array>
          </mxGeometry>
        </mxCell>
        <mxCell id="AZNB21Kx3GAau0c4Y6r7-7" value="0" style="text;html=1;align=center;verticalAlign=middle;whiteSpace=wrap;rounded=0;fontFamily=Times New Roman;" vertex="1" parent="1">
          <mxGeometry x="80" y="270" width="30" height="20" as="geometry" />
        </mxCell>
        <mxCell id="AZNB21Kx3GAau0c4Y6r7-10" value="w12&amp;nbsp;&lt;div style=&quot;font-size: 10px;&quot;&gt;=&lt;div style=&quot;font-size: 10px;&quot;&gt;w21&lt;/div&gt;&lt;/div&gt;" style="text;html=1;align=center;verticalAlign=middle;whiteSpace=wrap;rounded=0;fontFamily=Times New Roman;fontSize=10;" vertex="1" parent="1">
          <mxGeometry x="200" y="330" width="40" height="20" as="geometry" />
        </mxCell>
        <mxCell id="AZNB21Kx3GAau0c4Y6r7-11" value="&lt;font style=&quot;font-size: 10px;&quot;&gt;w21&amp;nbsp;&lt;/font&gt;&lt;div style=&quot;font-size: 10px;&quot;&gt;&lt;font style=&quot;font-size: 10px;&quot;&gt;=&lt;/font&gt;&lt;div style=&quot;&quot;&gt;&lt;font style=&quot;font-size: 10px;&quot;&gt;w12&lt;/font&gt;&lt;/div&gt;&lt;/div&gt;" style="text;html=1;align=center;verticalAlign=middle;whiteSpace=wrap;rounded=0;fontFamily=Times New Roman;" vertex="1" parent="1">
          <mxGeometry x="160" y="370" width="40" height="20" as="geometry" />
        </mxCell>
        <mxCell id="AZNB21Kx3GAau0c4Y6r7-13" value="" style="endArrow=none;html=1;rounded=0;opacity=50;" edge="1" parent="1">
          <mxGeometry width="50" height="50" relative="1" as="geometry">
            <mxPoint x="160" y="360" as="sourcePoint" />
            <mxPoint x="280" y="360" as="targetPoint" />
          </mxGeometry>
        </mxCell>
        <mxCell id="AZNB21Kx3GAau0c4Y6r7-14" value="" style="endArrow=none;html=1;rounded=0;textOpacity=10;opacity=50;" edge="1" parent="1">
          <mxGeometry width="50" height="50" relative="1" as="geometry">
            <mxPoint x="160" y="400" as="sourcePoint" />
            <mxPoint x="280" y="400" as="targetPoint" />
          </mxGeometry>
        </mxCell>
        <mxCell id="AZNB21Kx3GAau0c4Y6r7-16" value="" style="endArrow=none;html=1;rounded=0;opacity=50;" edge="1" parent="1">
          <mxGeometry width="50" height="50" relative="1" as="geometry">
            <mxPoint x="200" y="440" as="sourcePoint" />
            <mxPoint x="200" y="320" as="targetPoint" />
          </mxGeometry>
        </mxCell>
        <mxCell id="AZNB21Kx3GAau0c4Y6r7-17" value="" style="endArrow=none;html=1;rounded=0;opacity=50;" edge="1" parent="1">
          <mxGeometry width="50" height="50" relative="1" as="geometry">
            <mxPoint x="240" y="440" as="sourcePoint" />
            <mxPoint x="240" y="320" as="targetPoint" />
          </mxGeometry>
        </mxCell>
        <mxCell id="AZNB21Kx3GAau0c4Y6r7-18" value="w13&amp;nbsp;&lt;div style=&quot;font-size: 10px;&quot;&gt;=&lt;div style=&quot;font-size: 10px;&quot;&gt;w31&lt;/div&gt;&lt;/div&gt;" style="text;html=1;align=center;verticalAlign=middle;whiteSpace=wrap;rounded=0;fontFamily=Times New Roman;fontSize=10;" vertex="1" parent="1">
          <mxGeometry x="240" y="330" width="40" height="20" as="geometry" />
        </mxCell>
        <mxCell id="AZNB21Kx3GAau0c4Y6r7-19" value="&lt;font style=&quot;font-size: 10px;&quot;&gt;w23&amp;nbsp;&lt;/font&gt;&lt;div style=&quot;font-size: 10px;&quot;&gt;&lt;font style=&quot;font-size: 10px;&quot;&gt;=&lt;/font&gt;&lt;div style=&quot;&quot;&gt;&lt;font style=&quot;font-size: 10px;&quot;&gt;w32&lt;/font&gt;&lt;/div&gt;&lt;/div&gt;" style="text;html=1;align=center;verticalAlign=middle;whiteSpace=wrap;rounded=0;fontFamily=Times New Roman;" vertex="1" parent="1">
          <mxGeometry x="240" y="370" width="40" height="20" as="geometry" />
        </mxCell>
        <mxCell id="AZNB21Kx3GAau0c4Y6r7-20" value="&lt;font style=&quot;font-size: 10px;&quot;&gt;w31&amp;nbsp;&lt;/font&gt;&lt;div style=&quot;font-size: 10px;&quot;&gt;&lt;font style=&quot;font-size: 10px;&quot;&gt;=&lt;/font&gt;&lt;div style=&quot;&quot;&gt;&lt;font style=&quot;font-size: 10px;&quot;&gt;w13&lt;/font&gt;&lt;/div&gt;&lt;/div&gt;" style="text;html=1;align=center;verticalAlign=middle;whiteSpace=wrap;rounded=0;fontFamily=Times New Roman;" vertex="1" parent="1">
          <mxGeometry x="160" y="410" width="40" height="20" as="geometry" />
        </mxCell>
        <mxCell id="AZNB21Kx3GAau0c4Y6r7-21" value="&lt;font style=&quot;font-size: 10px;&quot;&gt;w32&amp;nbsp;&lt;/font&gt;&lt;div style=&quot;font-size: 10px;&quot;&gt;&lt;font style=&quot;font-size: 10px;&quot;&gt;=&lt;/font&gt;&lt;div style=&quot;&quot;&gt;&lt;font style=&quot;font-size: 10px;&quot;&gt;w23&lt;/font&gt;&lt;/div&gt;&lt;/div&gt;" style="text;html=1;align=center;verticalAlign=middle;whiteSpace=wrap;rounded=0;fontFamily=Times New Roman;" vertex="1" parent="1">
          <mxGeometry x="200" y="410" width="40" height="20" as="geometry" />
        </mxCell>
        <mxCell id="AZNB21Kx3GAau0c4Y6r7-22" value="&lt;font style=&quot;font-size: 12px;&quot;&gt;0&lt;/font&gt;" style="text;html=1;align=center;verticalAlign=middle;whiteSpace=wrap;rounded=0;fontFamily=Times New Roman;fontSize=10;" vertex="1" parent="1">
          <mxGeometry x="160" y="330" width="40" height="20" as="geometry" />
        </mxCell>
        <mxCell id="AZNB21Kx3GAau0c4Y6r7-23" value="&lt;font style=&quot;font-size: 12px;&quot;&gt;0&lt;/font&gt;" style="text;html=1;align=center;verticalAlign=middle;whiteSpace=wrap;rounded=0;fontFamily=Times New Roman;fontSize=10;" vertex="1" parent="1">
          <mxGeometry x="200" y="370" width="40" height="20" as="geometry" />
        </mxCell>
        <mxCell id="AZNB21Kx3GAau0c4Y6r7-24" value="&lt;font style=&quot;font-size: 12px;&quot;&gt;0&lt;/font&gt;" style="text;html=1;align=center;verticalAlign=middle;whiteSpace=wrap;rounded=0;fontFamily=Times New Roman;fontSize=10;" vertex="1" parent="1">
          <mxGeometry x="240" y="410" width="40" height="20" as="geometry" />
        </mxCell>
      </root>
    </mxGraphModel>
  </diagram>
</mxfile>
